<svg xmlns="http://www.w3.org/2000/svg" width="128" height="128" viewBox="0 0 128 128">
  <defs>
    <linearGradient id="bg" x1="0%" y1="0%" x2="0%" y2="100%">
      <stop offset="0%" style="stop-color:#2c3e50;stop-opacity:1" />
      <stop offset="100%" style="stop-color:#1a252f;stop-opacity:1" />
    </linearGradient>
  </defs>
  <!-- Background -->
  <rect width="128" height="128" rx="16" fill="url(#bg)"/>
  <!-- Prison bars -->
  <rect x="20" y="24" width="8" height="80" rx="2" fill="#7f8c8d"/>
  <rect x="40" y="24" width="8" height="80" rx="2" fill="#7f8c8d"/>
  <rect x="60" y="24" width="8" height="80" rx="2" fill="#7f8c8d"/>
  <rect x="80" y="24" width="8" height="80" rx="2" fill="#7f8c8d"/>
  <rect x="100" y="24" width="8" height="80" rx="2" fill="#7f8c8d"/>
  <!-- Horizontal bars -->
  <rect x="16" y="20" width="96" height="8" rx="2" fill="#95a5a6"/>
  <rect x="16" y="100" width="96" height="8" rx="2" fill="#95a5a6"/>
  <!-- Key icon -->
  <circle cx="64" cy="64" r="12" fill="none" stroke="#f39c12" stroke-width="4"/>
  <rect x="76" y="60" width="24" height="8" rx="2" fill="#f39c12"/>
  <rect x="92" y="68" width="8" height="8" rx="1" fill="#f39c12"/>
  <rect x="84" y="68" width="8" height="6" rx="1" fill="#f39c12"/>
</svg>
